<svg xmlns="http://www.w3.org/2000/svg" width="180" height="144" viewBox="0 0 180 144">
  <path id="Icon_awesome-laptop-code" data-name="Icon awesome-laptop-code" d="M71.727,73.589a4.5,4.5,0,0,0,6.365,0l3.181-3.181a4.5,4.5,0,0,0,0-6.365L71.227,54,81.27,43.954a4.5,4.5,0,0,0,0-6.365l-3.181-3.181a4.5,4.5,0,0,0-6.365,0L55.316,50.816a4.5,4.5,0,0,0,0,6.365Zm27-3.178,3.181,3.181a4.5,4.5,0,0,0,6.365,0l16.408-16.408a4.5,4.5,0,0,0,0-6.365L108.276,34.411a4.5,4.5,0,0,0-6.365,0L98.73,37.592a4.5,4.5,0,0,0,0,6.365L108.773,54,98.73,64.046a4.5,4.5,0,0,0,0,6.365ZM175.5,117H107.308a8.866,8.866,0,0,1-9.208,9H81c-5.257,0-9.287-4.913-9.217-9H4.5A4.513,4.513,0,0,0,0,121.5V126a18.053,18.053,0,0,0,18,18H162a18.053,18.053,0,0,0,18-18v-4.5A4.513,4.513,0,0,0,175.5,117ZM162,13.5A13.54,13.54,0,0,0,148.5,0H31.5A13.54,13.54,0,0,0,18,13.5V108H162ZM144,90H36V18H144Z" fill="#333"/>
</svg>
