<svg xmlns="http://www.w3.org/2000/svg" width="155.556" height="100" viewBox="0 0 155.556 100">
  <path id="Icon_ionic-md-people" data-name="Icon ionic-md-people" d="M108.31,49.542a21.088,21.088,0,0,0,21.212-20.833,21.216,21.216,0,0,0-42.424,0A21.088,21.088,0,0,0,108.31,49.542Zm-56.565,0A21.088,21.088,0,0,0,72.957,28.708a21.216,21.216,0,0,0-42.424,0A21.088,21.088,0,0,0,51.745,49.542Zm0,15.278c-16.617,0-49.5,7.985-49.5,24.306v18.75h100V89.125C102.25,72.8,68.361,64.819,51.745,64.819Zm56.565,3.82a37.734,37.734,0,0,0-6.06.346c8.134,5.9,11.111,9.722,11.111,20.139v18.75h44.444V89.125C157.806,72.8,124.928,68.64,108.31,68.64Z" transform="translate(-2.25 -7.875)" fill="#10c59a"/>
</svg>
