<svg xmlns="http://www.w3.org/2000/svg" width="123.429" height="120" viewBox="0 0 123.429 120">
  <g id="グループ_4265" data-name="グループ 4265" transform="translate(-1001 -1991)">
    <path id="Icon_metro-earth2" data-name="Icon metro-earth2" d="M48.285,93.357A45.714,45.714,0,1,1,94,47.642,45.716,45.716,0,0,1,48.285,93.357ZM85.337,43.811a.286.286,0,0,0,.143-.2,1.392,1.392,0,0,0,.44.8c.006.029-.009.023.006.063.023,0,.04-.017.06-.017a1.382,1.382,0,0,0,.871.326,1.409,1.409,0,0,0,1.194-.689.689.689,0,0,1,.06.069c0-.046-.009-.091-.014-.137a1.386,1.386,0,0,0,.189-.671,1.431,1.431,0,0,0-1.429-1.429,1.411,1.411,0,0,0-1.177.663c-.011-.009,0-.043-.031-.031a1.293,1.293,0,0,0-.22-.683v1.48A1.494,1.494,0,0,1,85.337,43.811Zm-65.646-.429c0-.431-.983-1.166-1.237-1.166,0-.077-.4-.957-.551-.957,0-.3-1.043-1.631-1.209-1.049-.109.377.8.886.8,1.323.169,0,.877,1.343,1.017,1.577,1.549,2.617-1.157.829-1.157-.28a3.643,3.643,0,0,1-.891-1.849,5.907,5.907,0,0,1-.754-1.434c0-.834-.46-1.234-1.374-1.234-.043-.083-.811-1.163-.826-1.163a3.027,3.027,0,0,0-.96-1.574,11.076,11.076,0,0,1-.2-2.326,7.881,7.881,0,0,0-.3-2.446,39.871,39.871,0,0,0,22.52,54.372c.017-1.417.123-3.114.446-3.114,0-.211.18-1.1.343-1.1a17.313,17.313,0,0,0,0-1.849c-.2-.409.269-.931.411-1.574.791-.4.231-4.38.829-4.38,0-1.991.446-3.151.134-5,.151,0-.9-1.117-.891-1.1-1.009,0-1.714-1.617-1.714-2.326a4.311,4.311,0,0,1-.346-1.163c.231,0-1.443-2.446-1.443-2.4-.886-.491.049-1.177.137-1.983-.769-.254.009-2.329.343-2.329a.645.645,0,0,1,.414-.546c.171.683.969-.34.343-.34,0-.451-.051-1.417,0-1.643,0-.7-.617-2.063-1.1-.617-.514-.254-1.811-.209-1.923-1.026.08-.4-.74-1.226-1.029-1.369.269-.7-1.391-1.643-1.991-1.643,0-.151-.317-.083-.411-.274-.611,0-.751-.823-1.443-.823-.8,0-1.6-.546-2.334-.546-.246-.489-1.386-.3-1.649-.823-.6,0-.831-1.131-.849-1.549-.026-.514-.434-2.291-1.149-2.291ZM77.565,20.454a.144.144,0,0,1-.023.063c.043,0,.094.049.143.069C77.642,20.542,77.605,20.5,77.565,20.454Zm.86.946a.923.923,0,0,1,.151.486c.1,0,.149-.051.229-.071C78.682,21.674,78.548,21.542,78.425,21.4Zm2.483,13.017c.046-1.234-1.029-1.029-1.369-1.714-.354,0-.483-.274-.963-.274a.588.588,0,0,0-.737.223c-.734.28-.291-.357-.843-.357.026-.706-.254-.9-1.031-.823-.446,1.006-1.131,1.609-1.029,2.74.329.074.271.149.206.477.437.023,3.089-.137,3.089-.411.091,0,.551.946.551.137.369,0,.563.866,1.443.614,0,.177,1.469-.611.683-.611ZM81.048,49c.051-.251-.126-.363-.274-.617.391,0-1.237-3.02-1.237-3.491-.249-.123-.566-.986-.623-1.3a3.282,3.282,0,0,1-.823-1.369,4.963,4.963,0,0,1-1.3-1.711c.491.054,1.234.154,1.234-.48-.331,0-.38-.409-.066-.409-.1-.42.223-.723.294-1.051a7.747,7.747,0,0,0,.254-1.483,2.263,2.263,0,0,0-.96.206c0,.277-.837-.069-.96-.069-.18-.36-1.486.469-1.851-.274-.591-.534-.431-.946-.623-1.7-.1-.383-.62-.406-.937-.469-.894-.174-.249,1.066-.3,1.349.549,0-.346.68-.346,1.026-.926-.2-.617-1.231-1.163-1.506-.163-.274-.034-.48-.414-.48,0-.366.194-1.029-.206-1.163,0-.177-.777-.249-.891-.48-.491,0-1.634-1.857-1.986-1.231-.22.4.186.5.269.823.711-.14.643,1.171,1.511,1.026a2.38,2.38,0,0,0,.066.549c.643-.151.569.477.891.477-.234.311-.977-.5-.774.183.117.394.051.731-.46,1.117,0-.426-.034-1.574-.48-1.574-.3-.606-1.2-.46-1.583-1.026-.309,0-.429-.96-.96-1.026a1.073,1.073,0,0,1-.62.274c-.289.58-1.92.06-1.92.137-.026.006-.914,2.177-.966,2.463-.1.614-.594.626-.743,1.209-.074.291-1.866.154-1.866.369a1.827,1.827,0,0,1-1.443-1.643,12.89,12.89,0,0,1,.277-2.466c.157.043.189.1.277.274.474-.177,1.58.117,1.58-.411q.69.017.411.549c.429.08,1.169.189,1.169-.411-.251,0-.277-.023-.277-.274.823-.854-.617-1.626-.617-2.051-.291-.1-.886-.729-.463-.491.357.2,1.663.606,1.149-.263a.1.1,0,0,0,.066-.066c.146.1.76.734.76.137.169,0,.82-.411.274-.411.051-.309.04-.566.066-.754.871.469.386-.32.826-.614,0,.569.469-.274.754-.274.34-.506,1.117-.114,1.306-.686-.42-.137-.343-1.189-.343-1.571.506.083,1.069-.683,1.146-.157.029.2.054.763.157.84.751.394.551-.226.551-.614-.251,0-.586-.88-.62-1.3-.206.029-.537.114-.62.271-.749,0-1.257-.271-1.851-.271a10.614,10.614,0,0,1-.686-.891c-.417-.717.417-.509.549-.543,0-.68,2.831-.56,2.954-1.646-.931,0,.96-1.577.96-1.571.631-.54.966-1.006,1.751-1.066.331-.023,4.017-1.04,4.017-.58.149.006.64.011,1.149.029a39.823,39.823,0,0,0-53.686-.62,1.012,1.012,0,0,1,.109.377c.374-.026.911-.266,1.031.209a2.348,2.348,0,0,1-.549-.071c.131,1.06-.463.411-.96.411a1.382,1.382,0,0,0-.454-.177c-.151.143-.311.277-.463.42.017.046-.009.049.02.1.16,0,.077.249.534.4a10.183,10.183,0,0,0,1.666.369,5.3,5.3,0,0,0,1.1-.083c0-.057.943-.477.277-.477.091-.377-.077-.471-.483-.477.034-.4.986-.137,1.374-.137.3-.5.009-.44.271-.894.314-.557.689-.074.894-.609a.958.958,0,0,1,.689.677c.249.206,1.511,2.069,1.511.751.451.151.677,1,.686,1.44.82-.12.891-.734.891-1.371.189,0-.069-.306-.069-.411.306-.111.689.291.689-.134.131,0,.137.131.137.274.426.083.7-.049.96.043.18.063.089,1,.006,1.326-.1.417-.9.423-.9.617-.9.674,1.066,1.026,1.374,1.437a3.8,3.8,0,0,1-.891-.134c-.446,0-1.526.471-1.923.134.554,0,.74-.666.826-1.3a.982.982,0,0,0-1.257.631c-.24.84-.8-.034-1.077.531-.109.034-1.1.494-1.1.34-1.114.157-.823,1.1-.823,2.123.443.266,1.343,1.023,1.3,1.437,1,.177,1.366.283,2.266.411a1.091,1.091,0,0,0,.551.34c0,.589.534.483,1.029.483,0-.751.874.626.96.889-.12,0,.206.769.274,1.029-.137-.049-.18,0-.137.137.434.16,1.123.114,1.237-.343-.417,0-.277-.477-.277-.754a.515.515,0,0,1,.069-.957c0,.389,1.414-.243.617-.546a1.54,1.54,0,0,0,.009-1.489c-.2-.24-.457,0-.557-.36.54-.134.143-1.163.137-1.643.171-.066.617.109.617,0,.529,0,1.409.669,1.717-.14.883.4.18.786,1.1.48a3.967,3.967,0,0,0,1.169,1.231c0,.049-.026.343.2.343,0,.22-.137-.126-.137.271.129.014.826.14.826-.134.443,0,.754-.543.754-.957.277-.18.763,1.506,1.1,1.506.246.383,1.031.94,1.031,1.3.166.169.34.123.34.617.209,0,.62-.82.62-.069a1.3,1.3,0,0,1,.826.751c-.494,0-.026.48-.28.48,0,.474-1.06.1-1.3.069-.329,1.471-2.311.414-3.511.794a4.091,4.091,0,0,0-1.917,2.286c.766.009,1.1-.663,1.786-.891.557,0,.666-.337,1.169-.477,0,.14.137.066.137.206-.977,0-.383.631-.1,1.091a1.178,1.178,0,0,0,.606.511,2.718,2.718,0,0,0-.231.517s0,0,0,0c-.186.063-.549.2-.62.343-1.106.123-.56.049-.486-.217.04.094.437.009.42.011-.066-.331-.166-.286-.069-.477-.6,0-.891.274-1.374.274-.08.163-.5.549-.686.549a3.25,3.25,0,0,1-.826,1.437c0-.111-.977.614-.891.614-.217.351-.454.34-.551.889a4.61,4.61,0,0,0-.343,1.094c-.426.283-.583,1.437-1.306,1.437-.443.88-1.237.763-1.237,1.917a6.03,6.03,0,0,1,.454,1.877c.1.483.263.986-.383,1-.046-.071-.5-.754-.414-.754a4.355,4.355,0,0,0-.549-1.471c-.271-.38-.774.06-1.169-.106-.169-.337-1.309-.411-1.714-.411.066.254.251.334.274.617a1.558,1.558,0,0,1-.88.243c-.6-.083-.526-.549-1.183-.483a1.984,1.984,0,0,0-1.786,2.02,6.048,6.048,0,0,0,0,2.054c0,.58.48,1,.48,1.437.466,0,.989,1.026,1.443,1.026.051.363-.229.42.549.414,0-.04.423-.266.48-.549-.537-.131,0-.823.343-.957,0,.489.686-.163.686-.206.077-.031.757-.274.757-.274,0-.554.517.054.137.274-.371,0-.343.617-.549.617-.089.44-.263.823-.366,1.251-.131.529.3.583.16,1.077a8.59,8.59,0,0,0,1.649,0,.485.485,0,0,0-.069-.274c.8,0,.069,1.506.551,1.506,0,.569.274,1.011.274,1.369a.91.91,0,0,1,.48,1.026c.457.06,1.44.177,1.44-.411.694,0,.743.471.691.957,1.383,0,.517-1.369,1.094-1.369.054-.226.149-.266.283-.117.283.151.5-.283.723-.42a1.861,1.861,0,0,1,.369-.194c.194.117.211.083.3.214a2.059,2.059,0,0,0,1.08-.437c.494.06.334,1.123,1.26,1.189a3.288,3.288,0,0,0,1.551-.091c.08-.054.374.186.406.289.309,0,.286.269.417.263a.111.111,0,0,0,.14.066c.04.117.286.151.414.477,0,.3.617.349.617.546.443.223-.151.283.529.489A4.935,4.935,0,0,0,44,54.474c.129-.489.546.066.757.066.109.223.166.054.271.274.637.531.217.326.48.891.306.2.4.9.486,1.3-.246,0-.071.94-.071,1.029-.3,0,.76.563.76-.14.434.071.72.546,1.029.546-.18.414.48.726.48.071.651.066.477,1.037.414,1.369.483,0,.623-.269,1.034-.32a2.794,2.794,0,0,1,1.506-.489A2.855,2.855,0,0,1,54,61.928,2.821,2.821,0,0,1,51.577,64.7a5,5,0,0,1-.36.389c0,.137-.031,1.5-.071,1.5,0,.274-.209,1.78-.411,1.78,0,.774-.506.914-.686,1.643-.417.309-1.546.823-1.72,1.163-.323,0-.563.274-.891.274-.046.094-.746.754-.62.754-.051.486.037,1.629-.226,1.949-.177.211-.431.189-.32.52-.386,0,.023.274-.586.274A1.358,1.358,0,0,0,44.6,75.954a1.522,1.522,0,0,1-.663,1.32c0,.194-.891.251-.891.754.083,0,0,.931,0,1.026a1.624,1.624,0,0,0-1.029.477c-.9,0-.789.091-1.371.48,0,.12-.083.546-.206.546,0,.694-.494.063-.894.414.157,0,.357.683.274.683,0,.6-.374.654-.754,1.1-.18.12-.351.617-.48.617,0,.406-.2.774-.2,1.163.086,0,.006.174.066.337.191-.054.2-.271.274-.271,0-.343.546.2.206.2-.283.429-.589.437-.757,1.029-.171,0-.32.166-.446.36A39.766,39.766,0,0,0,81.834,69.377a10.963,10.963,0,0,1,.311-2.311c.28.206.489.591.686,0-.494-.1-.374-.269-.206-.683a1.732,1.732,0,0,0,.877.234c.094-.177.169-.366.263-.543-.28-.217.106-.78.24-.506.071-.137.134-.28.2-.417-.031-.009-.023.011-.069,0,0-.249.046-.217.209-.343a.251.251,0,0,0,.006.049,39.79,39.79,0,0,0,3.934-17.211c0-.2-.029-.4-.031-.6-.074.28-.214.583-.411.651,0,.18-2.043,1.069-1.92,1.437-.36,0-1.623.36-1.854.82a3.187,3.187,0,0,0-1.374.549c-1.274,0-1.031-1.5-1.646-1.5Zm5.809-15.64H85.339c-.011-.014-.023-.017-.034-.037-.077,0-.4-.726-.274-.891a2.03,2.03,0,0,1,.246.017c-.129-.314-.269-.623-.409-.934a1.973,1.973,0,0,1-1.006.506c0,.117-.609,1.3,0,1.3a.208.208,0,0,0,.017.06A1.421,1.421,0,0,0,84,36.214h.563c.034.26.174.486.674.6.157.66,1.334.894,1.511.2-.5,0-.334-.477-.291-.8h.4a1.429,1.429,0,0,0,0-2.857ZM82.694,51.934c.1.006.76-.011.76-.129a6.982,6.982,0,0,0,1.991-.277c0,.886-.746,1.38-.62,2.26-.494,0-.277.509-.277.683-.32.2-.369.557-.754.754,0,.4-.891,1.054-1.154,1.394-.3.38-1.191,1.04-1.309,1.523.031-.114-1.634,1.734-1.246,1.734,0,.346-.469,3.08.137,3.08,0,.24.517,2.534.2,2.534,0,.737-.48,1.189-.48,1.777-.234.16-.569.249-.686.483-.42,0-.623.891-.823.891,0,.951-.277,1.657-.277,2.737.077,0-.549,1.54-.549,1.64-.506.34-1.786,1.56-1.786,2.194,0,0-.891,1.251-1.029,1.437a8.845,8.845,0,0,0-2.337.549c-.44,0-1.577.346-1.851-.069,0-.434-.237-.986-.274-1.577-.211,0-.246-.889-.48-.889,0-.189-1.311-2.809-1.1-2.809a4.6,4.6,0,0,0-.274-1.163c0-.943-.689-1.729-.689-2.6-.2,0-.623-1.914-.411-1.914a21.466,21.466,0,0,1,.5-2.78,6.614,6.614,0,0,0-.291-2.837c-.117,0-.511-.654-.551-.82a2.081,2.081,0,0,1-.754-1.777,4.631,4.631,0,0,0,.414-2.466,3.069,3.069,0,0,0-1.72-.206c-.443-.889-3.417-.34-4.26-.34,0,.486-2.071-.094-2.266-.48-.506,0-1.509-1.074-1.509-1.574a5.636,5.636,0,0,1-1.44-2.806c-.48-.24-.334-1.166-.071-1.166a4.882,4.882,0,0,0-.28-1.454c-.083-.289.28-.6.28-.943a4.129,4.129,0,0,1,.557-2.414,9.333,9.333,0,0,0,.54-1.02c.286-.717.371-.034.757-.674.369-.183.583-.794.963-1.094.166-.22.171-.311,0-.48a4.122,4.122,0,0,0,.48-1.3c.537-.746.157-.406.686-.343.194-.211.517-.754.823-.754a.867.867,0,0,1,.757-.411c0,.411,1.12-.134,1.237-.134a3.161,3.161,0,0,1,1.717-.823c0-.469,2.434.131,2.817.069v-.206c.52.123,1.469,2.209,1.371,2.671a5.353,5.353,0,0,1,1.031,0c0,.443.834.551,1.214.571.529.026,2.08-.054,2.08-.777a.642.642,0,0,1,.691.751c.463.051,3.214.106,3.02.683.4,0,.506.689.891.689-.077.474.48,1.711.891,1.711a2.155,2.155,0,0,0,.62,1.434,5.012,5.012,0,0,0,1.44,2.191c-.257.486.391.886.551,1.369-.037,0,.14.717.34.823,0,.486,1.023,2.466,1.583,2.466.037.24-.526.349.206.4ZM67.862,36.605c.106-.409.346-.091.569-.017.529.171.346-.009.737-.186C69.168,37.517,68.528,36.671,67.862,36.605Zm-1.446-2.054c.28,0,.357,1.257-.411,1.026,0-.311-.2-.889.209-.889.117.486.2.289.2-.137Zm-.34-.82c.317.137.457.091.411-.137.417.137-.054.434-.137.754C66.137,34.137,66.2,34.062,66.077,33.731Zm-7.351-6.094c-.674-.174.694-.374.754-.546a.319.319,0,0,1-.3-.437c.1-.237.271.283.506.166.277-.029.823-.443.543.357s-.546,1.406-1.574,1.42c-.369-.371-.014-.566.069-.96Zm2.543-2.806c.554,0,.069.411-.054.411.094.037-.017.369-.017.477.514-.006.523-.32.891-.411-.077.46-.591.549-.089.943.266.209.537.454.431.771.654,0,.751.629.617,1.369.363,0,.346.017.346-.346.351.1.326.414,0,.414-.326.643-1.18.614-1.786.614-.006-.5-.1-.529-.56-.389-.629.191-.137-.5-.126-.843.069,0,1.426.063.617-.206-.043-.737-.209-.957-.891-.957,0-.5-.177-.466-.26-1.017-.117-.814.637.057.88-.831ZM61.06,29.28c0,.169-.343.3-.411.066.066.023.091,0,.066-.066Zm-5.632-7.351H52.571a1.429,1.429,0,0,1,0-2.857h2.857a1.429,1.429,0,0,1,0,2.857ZM38.782,47.214c.16,0,.346.063.346.206C38.919,47.42,38.651,47.617,38.782,47.214Zm-2.606.14c-.114.217-1.04.18-1.169-.071.343,0,.609.14.96,0,0-.189-.157-.34-.274-.546.374,0,.794.286,1.306.274,0-.317-.14.069,0-.343a1.6,1.6,0,0,1,.754.751,10.192,10.192,0,0,0-1.577-.066Zm-3.023-1.643a1.925,1.925,0,0,1-1.237-.617c.34.014.677.154.891-.206.871.089.949.689,1.649.689.131.231.88.763.157.831a1.587,1.587,0,0,1-1.46-.7Zm.549,1.917c-.254,0-.674.111-.48-.414C33.559,47.26,33.719,47.4,33.7,47.628Zm.48-.069-.411.069C33.811,47.311,34.111,46.957,34.182,47.56Zm2.54,3.009c-.054.191-.046.2-.271.2.023-.089.043-.177.066-.271Zm-6.18-5.68c.066.023.137.049.206.069.089.34.274.171.48.069C31.228,45.422,30.308,45.537,30.542,44.888Z" transform="translate(998.429 2017.643)" fill="#333"/>
    <g id="多角形_68" data-name="多角形 68" transform="translate(1058.143 1991)" fill="#f2f2f2">
      <path d="M 52.39764404296875 55.14299392700195 L 13.88822269439697 55.14299392700195 C 11.71663284301758 55.14299392700195 9.773033142089844 54.01957321166992 8.689103126525879 52.13783264160156 C 7.605163097381592 50.256103515625 7.608502864837646 48.01118469238281 8.698033332824707 46.13267517089844 L 27.95274353027344 12.93490409851074 C 29.03853225708008 11.0628547668457 30.97879219055176 9.94521427154541 33.1429328918457 9.94521427154541 C 35.30707168579102 9.94521427154541 37.24733352661133 11.0628547668457 38.33312225341797 12.93490409851074 L 57.58783340454102 46.13268280029297 C 58.67736434936523 48.01118469238281 58.68070220947266 50.25609588623047 57.59677124023438 52.13783264160156 C 56.51284408569336 54.01956558227539 54.56924438476562 55.14299392700195 52.39764404296875 55.14299392700195 Z" stroke="none"/>
      <path d="M 33.1429328918457 11.94521331787109 C 32.45015335083008 11.94521331787109 30.72617721557617 12.13942337036133 29.68280029296875 13.93834686279297 L 10.4280891418457 47.13612365722656 C 9.381122589111328 48.94122314453125 10.07514572143555 50.53717041015625 10.42213439941406 51.13954544067383 C 10.76912307739258 51.74192428588867 11.80145645141602 53.14299011230469 13.88822174072266 53.14299011230469 L 52.39764404296875 53.14299011230469 C 54.48439788818359 53.14299011230469 55.51674270629883 51.74192428588867 55.86372375488281 51.13955688476562 C 56.21070861816406 50.53717803955078 56.90473175048828 48.94123458862305 55.85776519775391 47.13612365722656 L 36.60305786132812 13.93833541870117 C 35.55967712402344 12.13942337036133 33.83571243286133 11.94521331787109 33.1429328918457 11.94521331787109 M 33.1429328918457 7.945209503173828 C 35.83238220214844 7.945209503173828 38.52182769775391 9.273963928222656 40.06317901611328 11.93146896362305 L 59.31788635253906 45.12924957275391 C 62.41120910644531 50.46255874633789 58.5631103515625 57.14299011230469 52.39764404296875 57.14299011230469 L 13.88822174072266 57.14299011230469 C 7.722755432128906 57.14299011230469 3.874645233154297 50.46255874633789 6.967967987060547 45.12924957275391 L 26.22267913818359 11.93146896362305 C 27.76403427124023 9.273963928222656 30.45348358154297 7.945209503173828 33.1429328918457 7.945209503173828 Z" stroke="none" fill="#333"/>
    </g>
    <text id="_" data-name="!" transform="translate(1090.857 2036.429)" fill="#333" font-size="27" font-family="DIN2014-Bold, 'DIN \32 014'" font-weight="700"><tspan x="-3" y="0">!</tspan></text>
  </g>
</svg>
