<svg xmlns="http://www.w3.org/2000/svg" width="120" height="96" viewBox="0 0 120 96">
  <path id="Icon_awesome-hands-helping" data-name="Icon awesome-hands-helping" d="M91.5,36H63V46.5a13.5,13.5,0,1,1-27,0V23.7L23.834,31.013A11.976,11.976,0,0,0,18,41.288v8.869L3,58.821A5.986,5.986,0,0,0,.809,67.016l15,25.99A6,6,0,0,0,24,95.2L43.39,84H69A12.012,12.012,0,0,0,81,72h3a5.994,5.994,0,0,0,6-6V54h1.5A4.489,4.489,0,0,0,96,49.5v-9A4.489,4.489,0,0,0,91.5,36ZM119.2,28.987,104.2,3A6,6,0,0,0,96,.8L76.615,12H57.453A12.089,12.089,0,0,0,51.1,13.817l-6.281,3.919A5.96,5.96,0,0,0,42,22.818V46.5a7.5,7.5,0,1,0,15,0V30H91.5A10.507,10.507,0,0,1,102,40.5v5.344l15-8.663a6.007,6.007,0,0,0,2.194-8.194Z" transform="translate(0.002 -0.001)" fill="#10c59a"/>
</svg>
