<svg xmlns="http://www.w3.org/2000/svg" width="151" height="154" viewBox="0 0 151 154">
  <g id="グループ_4271" data-name="グループ 4271" transform="translate(-214 -3892)">
    <path id="Icon_material-smartphone" data-name="Icon material-smartphone" d="M63.839,1.547,16.89,1.5A9.417,9.417,0,0,0,7.5,10.89V95.4a9.417,9.417,0,0,0,9.39,9.39H63.839a9.417,9.417,0,0,0,9.39-9.39V10.89a9.377,9.377,0,0,0-9.39-9.343Zm0,84.462H16.89V20.28H63.839Z" transform="translate(291.771 3923.314)" fill="#333"/>
    <g id="Icon_material-smartphone-2" data-name="Icon material-smartphone" transform="translate(211.5 3895.5)" fill="#333">
      <path d="M 86.04549407958984 148.0000762939453 L 20.59091567993164 148.0000762939453 C 18.49371528625488 148.0000762939453 16.45467567443848 147.5855712890625 14.53043556213379 146.76806640625 C 12.67643547058105 145.9804229736328 11.01007556915283 144.8547668457031 9.577694892883301 143.4223937988281 C 8.145295143127441 141.989990234375 7.019635200500488 140.3236541748047 6.231995105743408 138.4696350097656 C 5.414495468139648 136.5453948974609 4.999995231628418 134.5063323974609 4.999995231628418 132.4091339111328 L 4.999995231628418 14.5909309387207 C 4.999995231628418 12.49373054504395 5.414495468139648 10.45467090606689 6.231995105743408 8.530430793762207 C 7.019635200500488 6.676430702209473 8.145295143127441 5.010090351104736 9.577694892883301 3.577690601348877 C 11.01007556915283 2.145310401916504 12.67643547058105 1.019650459289551 14.53043556213379 0.2320105135440826 C 16.45467567443848 -0.5854895114898682 18.49371528625488 -0.9999895095825195 20.59091567993164 -0.9999895095825195 L 86.04799652099609 -0.9345495104789734 C 94.64235687255859 -0.9345495104789734 101.6363983154297 6.030150413513184 101.6363983154297 14.5909309387207 L 101.6363983154297 132.4091339111328 C 101.6363983154297 134.5063323974609 101.2218933105469 136.5453948974609 100.4043960571289 138.4696350097656 C 99.61675262451172 140.3236541748047 98.49109649658203 141.989990234375 97.0587158203125 143.4223937988281 C 95.62631225585938 144.8547668457031 93.95997619628906 145.9804229736328 92.10597229003906 146.76806640625 C 90.18173217773438 147.5855712890625 88.14269256591797 148.0000762939453 86.04549407958984 148.0000762939453 Z M 23.09091567993164 116.818229675293 L 83.54549407958984 116.818229675293 L 83.54549407958984 30.18183135986328 L 23.09091567993164 30.18183135986328 L 23.09091567993164 116.818229675293 Z" stroke="none"/>
      <path d="M 20.59091949462891 1.500015258789062 C 13.39092254638672 1.500015258789062 7.499992370605469 7.390914916992188 7.499992370605469 14.59091186523438 L 7.499992370605469 132.4091186523438 C 7.499992370605469 139.6091613769531 13.39092254638672 145.5000457763672 20.59091949462891 145.5000457763672 L 86.04548645019531 145.5000457763672 C 93.24546813964844 145.5000457763672 99.13639831542969 139.6091613769531 99.13639831542969 132.4091186523438 L 99.13639831542969 14.59091186523438 C 99.13639831542969 7.390914916992188 93.24546813964844 1.565460205078125 86.04548645019531 1.565460205078125 L 20.59091949462891 1.500015258789062 M 86.04548645019531 119.3182373046875 L 20.59091949462891 119.3182373046875 L 20.59091949462891 27.68184661865234 L 86.04548645019531 27.68184661865234 L 86.04548645019531 119.3182373046875 M 20.59091949462891 -3.499984741210938 L 20.59592437744141 -3.499984741210938 L 86.05049133300781 -3.434539794921875 C 96.02085113525391 -3.434539794921875 104.1363983154297 4.651641845703125 104.1363983154297 14.59091186523438 L 104.1363983154297 132.4091186523438 C 104.1363983154297 134.8441009521484 103.6549224853516 137.2120361328125 102.7053756713867 139.4471740722656 C 101.7917404174805 141.5977172851562 100.4866943359375 143.5299224853516 98.82646942138672 145.1901397705078 C 97.16624450683594 146.850341796875 95.23403930664062 148.1553955078125 93.08348846435547 149.0690307617188 C 90.84837341308594 150.0185699462891 88.48044586181641 150.5000457763672 86.04548645019531 150.5000457763672 L 20.59091949462891 150.5000457763672 C 18.15596771240234 150.5000457763672 15.78803253173828 150.0185699462891 13.55290222167969 149.0690307617188 C 11.40235137939453 148.1553955078125 9.470146179199219 146.850341796875 7.809921264648438 145.1901397705078 C 6.149696350097656 143.5299224853516 4.844650268554688 141.5977172851562 3.931015014648438 139.4471740722656 C 2.981468200683594 137.2120361328125 2.499992370605469 134.8441009521484 2.499992370605469 132.4091186523438 L 2.499992370605469 14.59091186523438 C 2.499992370605469 12.15594482421875 2.981468200683594 9.788009643554688 3.931037902832031 7.552886962890625 C 4.844650268554688 5.40234375 6.149696350097656 3.470138549804688 7.809921264648438 1.809921264648438 C 9.470146179199219 0.14971923828125 11.40235137939453 -1.15533447265625 13.55290222167969 -2.0689697265625 C 15.78801727294922 -3.018508911132812 18.15594482421875 -3.499984741210938 20.59091949462891 -3.499984741210938 Z M 81.04548645019531 32.68184661865234 L 25.59091949462891 32.68184661865234 L 25.59091949462891 114.3182373046875 L 81.04548645019531 114.3182373046875 L 81.04548645019531 32.68184661865234 Z" stroke="none" fill="#fbfbfb"/>
    </g>
  </g>
</svg>
