<svg xmlns="http://www.w3.org/2000/svg" width="120" height="120" viewBox="0 0 120 120">
  <path id="Icon_ionic-md-timer" data-name="Icon ionic-md-timer" d="M56.712,96.721a6.663,6.663,0,1,0,6.663-6.663A6.685,6.685,0,0,0,56.712,96.721Zm0-93.346V30.029H70.038V17.25A46.641,46.641,0,1,1,16.7,63.375,46.173,46.173,0,0,1,27.231,33.894L63.375,70.038l9.4-9.4L27.433,15.317v.144A59.871,59.871,0,1,0,63.375,3.375Zm46.673,60a6.663,6.663,0,1,0-6.663,6.663A6.685,6.685,0,0,0,103.385,63.375Zm-80.019,0a6.663,6.663,0,1,0,6.663-6.663A6.685,6.685,0,0,0,23.365,63.375Z" transform="translate(-3.375 -3.375)" fill="#333"/>
</svg>
